<?xml version="1.0"?>

<svg xmlns="http://www.w3.org/2000/svg" style="display:none" aria-hidden="true">
  <defs>
    <filter id="sketch" x="-10%" y="-10%" width="120%" height="120%">
      <feTurbulence type="fractalNoise" baseFrequency="0.04" numOctaves="2" seed="6"></feTurbulence>
      <feDisplacementMap in="SourceGraphic" scale="1.2"></feDisplacementMap>
    </filter>
    <filter id="sketch-strong" x="-10%" y="-10%" width="120%" height="120%">
      <feTurbulence type="fractalNoise" baseFrequency="0.06" numOctaves="2" seed="3"></feTurbulence>
      <feDisplacementMap in="SourceGraphic" scale="2"></feDisplacementMap>
    </filter>
  </defs>

  
  

  <symbol id="arrow-right" viewBox="0 0 24 24" fill="none" stroke="currentColor" stroke-width="1.75" stroke-linecap="round" stroke-linejoin="round">
    <g filter="url(#sketch)">
      <line x1="5" y1="12" x2="19" y2="12"></line>
      <polyline points="12 5 19 12 12 19"></polyline>
    </g>
  </symbol>

  <symbol id="arrow-left" viewBox="0 0 24 24" fill="none" stroke="currentColor" stroke-width="1.75" stroke-linecap="round" stroke-linejoin="round">
    <g filter="url(#sketch)">
      <line x1="19" y1="12" x2="5" y2="12"></line>
      <polyline points="12 5 5 12 12 19"></polyline>
    </g>
  </symbol>

  <symbol id="arrow-up" viewBox="0 0 24 24" fill="none" stroke="currentColor" stroke-width="1.75" stroke-linecap="round" stroke-linejoin="round">
    <g filter="url(#sketch)">
      <line x1="12" y1="19" x2="12" y2="5"></line>
      <polyline points="5 12 12 5 19 12"></polyline>
    </g>
  </symbol>

  <symbol id="chevron-down" viewBox="0 0 24 24" fill="none" stroke="currentColor" stroke-width="1.75" stroke-linecap="round" stroke-linejoin="round">
    <g filter="url(#sketch)">
      <polyline points="6 9 12 15 18 9"></polyline>
    </g>
  </symbol>

  <symbol id="book" viewBox="0 0 24 24" fill="none" stroke="currentColor" stroke-width="1.75" stroke-linecap="round" stroke-linejoin="round">
    <g filter="url(#sketch)">
      <path d="M5 4 C5 3 6 3 6 3 L18 3 C19 3 19 4 19 4 L19 20 C19 21 18 21 18 21 L6 21 C5 21 5 20 5 20 Z"></path>
      <path d="M5 17 L19 17"></path>
      <path d="M9 7 L15 7"></path>
    </g>
  </symbol>

  <symbol id="pencil" viewBox="0 0 24 24" fill="none" stroke="currentColor" stroke-width="1.75" stroke-linecap="round" stroke-linejoin="round">
    <g filter="url(#sketch)">
      <path d="M14 4 L20 10 L9 21 L3 21 L3 15 Z"></path>
      <line x1="14" y1="4" x2="20" y2="10"></line>
      <line x1="12" y1="6" x2="18" y2="12"></line>
    </g>
  </symbol>

  <symbol id="folder" viewBox="0 0 24 24" fill="none" stroke="currentColor" stroke-width="1.75" stroke-linecap="round" stroke-linejoin="round">
    <g filter="url(#sketch)">
      <path d="M3 7 C3 6 4 5 5 5 L9 5 L11 7 L19 7 C20 7 21 8 21 9 L21 18 C21 19 20 20 19 20 L5 20 C4 20 3 19 3 18 Z"></path>
    </g>
  </symbol>

  <symbol id="tag" viewBox="0 0 24 24" fill="none" stroke="currentColor" stroke-width="1.75" stroke-linecap="round" stroke-linejoin="round">
    <g filter="url(#sketch)">
      <path d="M3 12 L12 3 L21 3 L21 12 L12 21 Z"></path>
      <circle cx="16" cy="8" r="1.2"></circle>
    </g>
  </symbol>

  <symbol id="calendar" viewBox="0 0 24 24" fill="none" stroke="currentColor" stroke-width="1.75" stroke-linecap="round" stroke-linejoin="round">
    <g filter="url(#sketch)">
      <rect x="3" y="5" width="18" height="16" rx="1.5"></rect>
      <line x1="3" y1="10" x2="21" y2="10"></line>
      <line x1="8" y1="3" x2="8" y2="7"></line>
      <line x1="16" y1="3" x2="16" y2="7"></line>
    </g>
  </symbol>

  <symbol id="code" viewBox="0 0 24 24" fill="none" stroke="currentColor" stroke-width="1.75" stroke-linecap="round" stroke-linejoin="round">
    <g filter="url(#sketch)">
      <polyline points="9 8 4 12 9 16"></polyline>
      <polyline points="15 8 20 12 15 16"></polyline>
      <line x1="13.5" y1="6" x2="10.5" y2="18"></line>
    </g>
  </symbol>

  <symbol id="search" viewBox="0 0 24 24" fill="none" stroke="currentColor" stroke-width="1.75" stroke-linecap="round" stroke-linejoin="round">
    <g filter="url(#sketch)">
      <circle cx="10.5" cy="10.5" r="6.5"></circle>
      <line x1="15" y1="15" x2="20" y2="20"></line>
    </g>
  </symbol>

  <symbol id="link" viewBox="0 0 24 24" fill="none" stroke="currentColor" stroke-width="1.75" stroke-linecap="round" stroke-linejoin="round">
    <g filter="url(#sketch)">
      <path d="M14 4 L20 4 L20 10"></path>
      <line x1="20" y1="4" x2="11" y2="13"></line>
      <path d="M18 14 L18 20 L4 20 L4 6 L10 6"></path>
    </g>
  </symbol>

  <symbol id="mail" viewBox="0 0 24 24" fill="none" stroke="currentColor" stroke-width="1.75" stroke-linecap="round" stroke-linejoin="round">
    <g filter="url(#sketch)">
      <rect x="3" y="5" width="18" height="14" rx="1.5"></rect>
      <polyline points="3 7 12 13 21 7"></polyline>
    </g>
  </symbol>

  <symbol id="github" viewBox="0 0 24 24" fill="none" stroke="currentColor" stroke-width="1.75" stroke-linecap="round" stroke-linejoin="round">
    <g filter="url(#sketch)">
      <path d="M9 21 C5 22 5 18 3 18"></path>
      <path d="M15 21 L15 17.5 C15 16.5 15 15.5 14 15 C17 14.7 20 13.5 20 9 C20 8 19.5 6.7 19 6 C19 5 19 4 18.5 3 C18.5 3 17.5 3 15.5 4.5 C14.5 4 13.5 4 12.5 4 C11 4 10 4 9 4.5 C7 3 6 3 6 3 C5.5 4 5.5 5 5.5 6 C5 6.7 5 8 5 9 C5 13.5 8 14.7 11 15 C10 15.5 10 16.5 10 17.5 L10 21"></path>
    </g>
  </symbol>

  <symbol id="coffee" viewBox="0 0 24 24" fill="none" stroke="currentColor" stroke-width="1.75" stroke-linecap="round" stroke-linejoin="round">
    <g filter="url(#sketch)">
      <path d="M4 10 L18 10 L18 17 C18 19 17 20 15 20 L7 20 C5 20 4 19 4 17 Z"></path>
      <path d="M18 12 L20 12 C21 12 22 13 22 14 C22 15 21 16 20 16 L18 16"></path>
      <path d="M8 5 C8 6 9 6 9 7"></path>
      <path d="M12 4 C12 5 13 5 13 6"></path>
    </g>
  </symbol>

  <symbol id="bookmark" viewBox="0 0 24 24" fill="none" stroke="currentColor" stroke-width="1.75" stroke-linecap="round" stroke-linejoin="round">
    <g filter="url(#sketch)">
      <path d="M5 3 L19 3 L19 21 L12 16 L5 21 Z"></path>
    </g>
  </symbol>

  <symbol id="heart" viewBox="0 0 24 24" fill="none" stroke="currentColor" stroke-width="1.75" stroke-linecap="round" stroke-linejoin="round">
    <g filter="url(#sketch)">
      <path d="M12 21 C8 18 3 14 3 9 C3 6 5.5 4 8 4 C10 4 11 5 12 7 C13 5 14 4 16 4 C18.5 4 21 6 21 9 C21 14 16 18 12 21 Z"></path>
    </g>
  </symbol>

  <symbol id="star" viewBox="0 0 24 24" fill="none" stroke="currentColor" stroke-width="1.75" stroke-linecap="round" stroke-linejoin="round">
    <g filter="url(#sketch)">
      <polygon points="12 3 14.5 9.5 21.5 9.5 16 13.5 18 20.5 12 16.5 6 20.5 8 13.5 2.5 9.5 9.5 9.5"></polygon>
    </g>
  </symbol>

  <symbol id="sun" viewBox="0 0 24 24" fill="none" stroke="currentColor" stroke-width="1.5" stroke-linecap="round" stroke-linejoin="round">
    <g filter="url(#sketch)">
      <circle cx="12" cy="12" r="5"></circle>
      <line x1="12" y1="1" x2="12" y2="3"></line>
      <line x1="12" y1="21" x2="12" y2="23"></line>
      <line x1="4.22" y1="4.22" x2="5.64" y2="5.64"></line>
      <line x1="18.36" y1="18.36" x2="19.78" y2="19.78"></line>
      <line x1="1" y1="12" x2="3" y2="12"></line>
      <line x1="21" y1="12" x2="23" y2="12"></line>
      <line x1="4.22" y1="19.78" x2="5.64" y2="18.36"></line>
      <line x1="18.36" y1="5.64" x2="19.78" y2="4.22"></line>
    </g>
  </symbol>

  <symbol id="moon" viewBox="0 0 24 24" fill="none" stroke="currentColor" stroke-width="1.5" stroke-linecap="round" stroke-linejoin="round">
    <g filter="url(#sketch)">
      <path d="M21 12.79 A9 9 0 1 1 11.21 3 A7 7 0 0 0 21 12.79 Z"></path>
    </g>
  </symbol>

  <symbol id="monitor" viewBox="0 0 24 24" fill="none" stroke="currentColor" stroke-width="1.5" stroke-linecap="round" stroke-linejoin="round">
    <g filter="url(#sketch)">
      <rect x="2" y="3" width="20" height="14" rx="2"></rect>
      <line x1="8" y1="21" x2="16" y2="21"></line>
      <line x1="12" y1="17" x2="12" y2="21"></line>
    </g>
  </symbol>
</svg>